<mxfile host="app.diagrams.net" modified="2024-04-09T16:07:22.654Z" agent="Mozilla/5.0 (X11; Linux x86_64) AppleWebKit/537.36 (KHTML, like Gecko) Chrome/123.0.0.0 Safari/537.36" etag="-4Tsypnd6uTwvm3DKPpe" version="24.2.2" type="device">
  <diagram name="PÃ¡gina-1" id="4QZvdcZJ5oB2tHuWdFdc">
    <mxGraphModel dx="1988" dy="2315" grid="1" gridSize="10" guides="1" tooltips="1" connect="1" arrows="1" fold="1" page="1" pageScale="1" pageWidth="827" pageHeight="1169" math="0" shadow="0">
      <root>
        <mxCell id="0" />
        <mxCell id="1" parent="0" />
        <mxCell id="Qbz0tX9M-Izm4d5-4zGy-1" value="&lt;b&gt;&lt;font style=&quot;font-size: 15px;&quot;&gt;Cloud workstation (Dublin, Ireland)&lt;/font&gt;&lt;/b&gt;" style="ellipse;shape=cloud;whiteSpace=wrap;html=1;" parent="1" vertex="1">
          <mxGeometry x="162.89" y="-110" width="363.37" height="180" as="geometry" />
        </mxCell>
        <mxCell id="Qbz0tX9M-Izm4d5-4zGy-4" value="AMARI Callbox (gNB)" style="swimlane;whiteSpace=wrap;html=1;startSize=40;" parent="1" vertex="1">
          <mxGeometry x="264.75" y="270" width="160" height="160" as="geometry" />
        </mxCell>
        <mxCell id="Qbz0tX9M-Izm4d5-4zGy-5" value="Amarisoft gNB software" style="rounded=1;whiteSpace=wrap;html=1;" parent="Qbz0tX9M-Izm4d5-4zGy-4" vertex="1">
          <mxGeometry x="20" y="70" width="120" height="60" as="geometry" />
        </mxCell>
        <mxCell id="J1t6FkV6wzgzCQJ9Nlqd-4" value="" style="endArrow=none;html=1;rounded=0;strokeWidth=8;strokeColor=#ff0000;entryX=0.5;entryY=1;entryDx=0;entryDy=0;" parent="Qbz0tX9M-Izm4d5-4zGy-4" target="Qbz0tX9M-Izm4d5-4zGy-6" edge="1">
          <mxGeometry width="50" height="50" relative="1" as="geometry">
            <mxPoint x="80.38" y="100" as="sourcePoint" />
            <mxPoint x="80.38" y="210" as="targetPoint" />
          </mxGeometry>
        </mxCell>
        <mxCell id="Qbz0tX9M-Izm4d5-4zGy-6" value="" style="shape=image;verticalLabelPosition=bottom;labelBackgroundColor=default;verticalAlign=top;aspect=fixed;imageAspect=0;image=https://ingun.com/media/CMS%20Media/campaigns/5G/campaign-5G-icon-antenne_M-min.png;clipPath=inset(23.78% 31% 24.67% 31.33%);" parent="1" vertex="1">
          <mxGeometry x="300.75" y="470" width="87.67" height="90" as="geometry" />
        </mxCell>
        <mxCell id="Qbz0tX9M-Izm4d5-4zGy-7" value="" style="endArrow=none;html=1;rounded=0;entryX=0.5;entryY=1;entryDx=0;entryDy=0;" parent="1" target="Qbz0tX9M-Izm4d5-4zGy-4" edge="1">
          <mxGeometry width="50" height="50" relative="1" as="geometry">
            <mxPoint x="344.75" y="470" as="sourcePoint" />
            <mxPoint x="370.75" y="450" as="targetPoint" />
          </mxGeometry>
        </mxCell>
        <mxCell id="Qbz0tX9M-Izm4d5-4zGy-8" value="UE Raspberry Pi 4&lt;div&gt;(Barcelona, Spain)&lt;/div&gt;" style="swimlane;whiteSpace=wrap;html=1;startSize=40;" parent="1" vertex="1">
          <mxGeometry y="580" width="141" height="135" as="geometry" />
        </mxCell>
        <mxCell id="Qbz0tX9M-Izm4d5-4zGy-9" value="Ubuntu 22.04.3 LTS&lt;div&gt;Interface enxXXXXX&lt;/div&gt;&lt;div&gt;IP given by DHCP&lt;/div&gt;" style="rounded=1;whiteSpace=wrap;html=1;" parent="Qbz0tX9M-Izm4d5-4zGy-8" vertex="1">
          <mxGeometry x="10.5" y="60" width="120" height="60" as="geometry" />
        </mxCell>
        <mxCell id="Qbz0tX9M-Izm4d5-4zGy-11" value="&lt;span style=&quot;font-weight: 700;&quot;&gt;&lt;font style=&quot;font-size: 14px;&quot;&gt;Quectel RM502Q-AE&lt;/font&gt;&lt;/span&gt;" style="rounded=1;whiteSpace=wrap;html=1;" parent="1" vertex="1">
          <mxGeometry x="208" y="637.5" width="152" height="65" as="geometry" />
        </mxCell>
        <mxCell id="Qbz0tX9M-Izm4d5-4zGy-12" style="edgeStyle=orthogonalEdgeStyle;rounded=0;orthogonalLoop=1;jettySize=auto;html=1;entryX=0;entryY=0.5;entryDx=0;entryDy=0;endArrow=none;endFill=0;" parent="1" edge="1">
          <mxGeometry relative="1" as="geometry">
            <mxPoint x="141" y="669.75" as="sourcePoint" />
            <mxPoint x="209" y="669.75" as="targetPoint" />
          </mxGeometry>
        </mxCell>
        <mxCell id="Qbz0tX9M-Izm4d5-4zGy-13" value="USB" style="edgeLabel;html=1;align=center;verticalAlign=middle;resizable=0;points=[];" parent="Qbz0tX9M-Izm4d5-4zGy-12" vertex="1" connectable="0">
          <mxGeometry x="-0.0618" relative="1" as="geometry">
            <mxPoint x="1" as="offset" />
          </mxGeometry>
        </mxCell>
        <mxCell id="Qbz0tX9M-Izm4d5-4zGy-14" value="Edge Raspberry Pi 5&lt;div&gt;(Barcelona, Spain)&lt;/div&gt;" style="swimlane;whiteSpace=wrap;html=1;startSize=40;" parent="1" vertex="1">
          <mxGeometry x="640" y="270" width="160" height="160" as="geometry" />
        </mxCell>
        <mxCell id="Qbz0tX9M-Izm4d5-4zGy-15" value="UPF2" style="rounded=1;whiteSpace=wrap;html=1;" parent="Qbz0tX9M-Izm4d5-4zGy-14" vertex="1">
          <mxGeometry x="47.5" y="85" width="65" height="30" as="geometry" />
        </mxCell>
        <mxCell id="J1t6FkV6wzgzCQJ9Nlqd-5" value="" style="endArrow=none;html=1;rounded=0;strokeWidth=8;strokeColor=#ff0000;entryX=0.5;entryY=1;entryDx=0;entryDy=0;" parent="Qbz0tX9M-Izm4d5-4zGy-14" edge="1">
          <mxGeometry width="50" height="50" relative="1" as="geometry">
            <mxPoint x="80" y="50" as="sourcePoint" />
            <mxPoint x="79.72000000000003" y="85" as="targetPoint" />
          </mxGeometry>
        </mxCell>
        <mxCell id="Qbz0tX9M-Izm4d5-4zGy-23" style="edgeStyle=orthogonalEdgeStyle;rounded=0;orthogonalLoop=1;jettySize=auto;html=1;entryX=1;entryY=0.5;entryDx=0;entryDy=0;startArrow=classic;startFill=1;" parent="1" source="Qbz0tX9M-Izm4d5-4zGy-16" target="Qbz0tX9M-Izm4d5-4zGy-22" edge="1">
          <mxGeometry relative="1" as="geometry" />
        </mxCell>
        <mxCell id="Qbz0tX9M-Izm4d5-4zGy-16" value="UPF1" style="rounded=1;whiteSpace=wrap;html=1;" parent="1" vertex="1">
          <mxGeometry x="314.58" y="10" width="60" height="30" as="geometry" />
        </mxCell>
        <mxCell id="Qbz0tX9M-Izm4d5-4zGy-24" style="edgeStyle=orthogonalEdgeStyle;rounded=0;orthogonalLoop=1;jettySize=auto;html=1;entryX=0.5;entryY=0;entryDx=0;entryDy=0;startArrow=classic;startFill=1;" parent="1" source="Qbz0tX9M-Izm4d5-4zGy-22" target="Qbz0tX9M-Izm4d5-4zGy-5" edge="1">
          <mxGeometry relative="1" as="geometry" />
        </mxCell>
        <mxCell id="Qbz0tX9M-Izm4d5-4zGy-22" value="ogstun interface for cloud APN" style="image;aspect=fixed;perimeter=ellipsePerimeter;html=1;align=center;shadow=0;dashed=0;spacingTop=3;image=img/lib/active_directory/tunnel.svg;rotation=-90;" parent="1" vertex="1">
          <mxGeometry x="290" y="140" width="110.74" height="22.14" as="geometry" />
        </mxCell>
        <mxCell id="Qbz0tX9M-Izm4d5-4zGy-27" style="edgeStyle=orthogonalEdgeStyle;rounded=0;orthogonalLoop=1;jettySize=auto;html=1;startArrow=classic;startFill=1;" parent="1" source="Qbz0tX9M-Izm4d5-4zGy-25" target="Qbz0tX9M-Izm4d5-4zGy-5" edge="1">
          <mxGeometry relative="1" as="geometry" />
        </mxCell>
        <mxCell id="Qbz0tX9M-Izm4d5-4zGy-28" style="edgeStyle=orthogonalEdgeStyle;rounded=0;orthogonalLoop=1;jettySize=auto;html=1;entryX=0;entryY=0.5;entryDx=0;entryDy=0;startArrow=classic;startFill=1;" parent="1" source="Qbz0tX9M-Izm4d5-4zGy-25" target="Qbz0tX9M-Izm4d5-4zGy-15" edge="1">
          <mxGeometry relative="1" as="geometry" />
        </mxCell>
        <mxCell id="Qbz0tX9M-Izm4d5-4zGy-25" value="ogstun interface for edge APN" style="image;aspect=fixed;perimeter=ellipsePerimeter;html=1;align=center;shadow=0;dashed=0;spacingTop=3;image=img/lib/active_directory/tunnel.svg;rotation=0;" parent="1" vertex="1">
          <mxGeometry x="480" y="358.93" width="110.74" height="22.14" as="geometry" />
        </mxCell>
        <mxCell id="Qbz0tX9M-Izm4d5-4zGy-36" value="" style="endArrow=none;html=1;rounded=0;strokeWidth=8;strokeColor=#ff0000;entryX=0;entryY=0.5;entryDx=0;entryDy=0;" parent="1" source="Qbz0tX9M-Izm4d5-4zGy-5" target="Qbz0tX9M-Izm4d5-4zGy-15" edge="1">
          <mxGeometry width="50" height="50" relative="1" as="geometry">
            <mxPoint x="200" y="380" as="sourcePoint" />
            <mxPoint x="270" y="120" as="targetPoint" />
          </mxGeometry>
        </mxCell>
        <mxCell id="Qbz0tX9M-Izm4d5-4zGy-37" value="" style="endArrow=none;html=1;rounded=0;strokeWidth=8;strokeColor=#ff0000;entryX=0.5;entryY=1;entryDx=0;entryDy=0;" parent="1" source="Qbz0tX9M-Izm4d5-4zGy-11" target="Qbz0tX9M-Izm4d5-4zGy-6" edge="1">
          <mxGeometry width="50" height="50" relative="1" as="geometry">
            <mxPoint x="300" y="870" as="sourcePoint" />
            <mxPoint x="424.75" y="540" as="targetPoint" />
          </mxGeometry>
        </mxCell>
        <mxCell id="J1t6FkV6wzgzCQJ9Nlqd-1" value="" style="endArrow=none;html=1;rounded=0;strokeWidth=8;strokeColor=#ff0000;" parent="1" edge="1">
          <mxGeometry width="50" height="50" relative="1" as="geometry">
            <mxPoint x="340" y="369.5" as="sourcePoint" />
            <mxPoint x="480" y="370" as="targetPoint" />
          </mxGeometry>
        </mxCell>
        <mxCell id="J1t6FkV6wzgzCQJ9Nlqd-2" value="" style="endArrow=none;html=1;rounded=0;strokeWidth=8;strokeColor=#ff0000;" parent="1" source="Qbz0tX9M-Izm4d5-4zGy-5" target="Qbz0tX9M-Izm4d5-4zGy-6" edge="1">
          <mxGeometry width="50" height="50" relative="1" as="geometry">
            <mxPoint x="425" y="390" as="sourcePoint" />
            <mxPoint x="708" y="390" as="targetPoint" />
          </mxGeometry>
        </mxCell>
        <mxCell id="Qbz0tX9M-Izm4d5-4zGy-10" value="" style="shape=image;verticalLabelPosition=bottom;labelBackgroundColor=default;verticalAlign=top;aspect=fixed;imageAspect=0;image=https://icons.veryicon.com/png/o/miscellaneous/medium-thin-linear-icon/signal-28.png;rotation=15;" parent="1" vertex="1">
          <mxGeometry x="279" y="570" width="60" height="60" as="geometry" />
        </mxCell>
        <mxCell id="J1t6FkV6wzgzCQJ9Nlqd-7" value="" style="endArrow=none;html=1;rounded=0;strokeWidth=8;strokeColor=#ff0000;entryX=0.5;entryY=1;entryDx=0;entryDy=0;exitX=0.744;exitY=0.722;exitDx=0;exitDy=0;exitPerimeter=0;startArrow=none;startFill=0;" parent="1" edge="1">
          <mxGeometry width="50" height="50" relative="1" as="geometry">
            <mxPoint x="521.8372800000002" y="19.960000000000036" as="sourcePoint" />
            <mxPoint x="520" y="320" as="targetPoint" />
          </mxGeometry>
        </mxCell>
        <mxCell id="NwKK6Qykc34sIzoKL2Qf-1" value="Ethernet" style="edgeLabel;html=1;align=center;verticalAlign=middle;resizable=0;points=[];" parent="J1t6FkV6wzgzCQJ9Nlqd-7" vertex="1" connectable="0">
          <mxGeometry x="-0.0745" y="2" relative="1" as="geometry">
            <mxPoint as="offset" />
          </mxGeometry>
        </mxCell>
        <mxCell id="jFKwk0qnfKMsx8sp6gNu-1" value="" style="endArrow=none;html=1;rounded=0;strokeWidth=8;strokeColor=#ff0000;endFill=0;startArrow=classic;startFill=1;exitX=0.734;exitY=0.75;exitDx=0;exitDy=0;exitPerimeter=0;" edge="1" parent="1" source="Qbz0tX9M-Izm4d5-4zGy-1">
          <mxGeometry width="50" height="50" relative="1" as="geometry">
            <mxPoint x="480" y="25" as="sourcePoint" />
            <mxPoint x="520" y="25" as="targetPoint" />
          </mxGeometry>
        </mxCell>
        <mxCell id="J1t6FkV6wzgzCQJ9Nlqd-6" value="" style="endArrow=none;html=1;rounded=0;strokeWidth=8;strokeColor=#ff0000;entryX=0;entryY=0.5;entryDx=0;entryDy=0;" parent="1" edge="1">
          <mxGeometry width="50" height="50" relative="1" as="geometry">
            <mxPoint x="520" y="320" as="sourcePoint" />
            <mxPoint x="723" y="320" as="targetPoint" />
          </mxGeometry>
        </mxCell>
      </root>
    </mxGraphModel>
  </diagram>
</mxfile>
